<?xml version="1.0" encoding="UTF-8" standalone="no" ?>
<!DOCTYPE svg PUBLIC "-//W3C//DTD SVG 1.1//EN" "http://www.w3.org/Graphics/SVG/1.1/DTD/svg11.dtd">
<svg xmlns="http://www.w3.org/2000/svg" xmlns:xlink="http://www.w3.org/1999/xlink" version="1.1" width="480" height="480" viewBox="0 0 480 480" xml:space="preserve">
<desc>Created with Fabric.js 3.6.6</desc>
<defs>
</defs>
<rect x="0" y="0" width="100%" height="100%" fill="rgba(255, 255, 255, 0)"></rect>
<g transform="matrix(4.57 0 0 3.82 237.5 236.75)"  >
<polygon style="stroke: rgb(0,0,0); stroke-width: 0; stroke-dasharray: none; stroke-linecap: butt; stroke-dashoffset: 0; stroke-linejoin: miter; stroke-miterlimit: 4; fill: rgb(255,255,255); fill-rule: nonzero; opacity: 1;" vector-effect="non-scaling-stroke"  points="-50,-50 -50,50 50,50 50,-50 " />
</g>
<g transform="matrix(1.07 0 0 1.07 239.97 239.97)"  >
<path style="stroke: none; stroke-width: 0; stroke-dasharray: none; stroke-linecap: butt; stroke-dashoffset: 0; stroke-linejoin: round; stroke-miterlimit: 4; fill: rgb(0,0,0); fill-rule: nonzero; opacity: 1;" vector-effect="non-scaling-stroke"  transform=" translate(-224, -256)" d="M 120.12 208.29 c -3.88 -2.9 -7.77 -4.35 -11.65 -4.35 H 91.03 v 104.47 h 17.45 c 3.88 0 7.77 -1.45 11.65 -4.35 c 3.88 -2.9 5.82 -7.25 5.82 -13.06 v -69.65 c -0.01 -5.8 -1.96 -10.16 -5.83 -13.06 z M 404.1 32 H 43.9 C 19.7 32 0.06 51.59 0 75.8 v 360.4 C 0.06 460.41 19.7 480 43.9 480 h 360.2 c 24.21 0 43.84 -19.59 43.9 -43.8 V 75.8 c -0.06 -24.21 -19.7 -43.8 -43.9 -43.8 z M 154.2 291.19 c 0 18.81 -11.61 47.31 -48.36 47.25 h -46.4 V 172.98 h 47.38 c 35.44 0 47.36 28.46 47.37 47.28 l 0.01 70.93 z m 100.68 -88.66 H 201.6 v 38.42 h 32.57 v 29.57 H 201.6 v 38.41 h 53.29 v 29.57 h -62.18 c -11.16 0.29 -20.44 -8.53 -20.72 -19.69 V 193.7 c -0.27 -11.15 8.56 -20.41 19.71 -20.69 h 63.19 l -0.01 29.52 z m 103.64 115.29 c -13.2 30.75 -36.85 24.63 -47.44 0 l -38.53 -144.8 h 32.57 l 29.71 113.72 l 29.57 -113.72 h 32.58 l -38.46 144.8 z" stroke-linecap="round" />
</g>
</svg>